<svg width="196" height="123" viewBox="0 0 196 123" fill="none" xmlns="http://www.w3.org/2000/svg">
<path d="M57.9694 1.79397C30.8478 4.22277 9.49462 20.9714 3.16962 44.7028C-0.726577 59.3262 0.690223 78.0988 6.55982 90.5464C9.29222 96.3148 11.1138 98.9966 15.1112 103.247C26.2938 115.239 43.5484 121.311 68.1906 122.07L78.6142 122.374L78.9178 121.159C79.4744 119.135 79.3226 99.958 78.766 98.8954C78.26 98.0352 77.6528 97.934 72.3904 97.934C55.6924 97.934 45.2182 94.7968 38.033 87.561C32.5176 82.0456 29.937 75.7712 29.2286 66.056C28.2672 53.0518 30.949 43.4378 37.6282 36.202C40.2594 33.3684 41.6762 32.3564 45.5218 30.4842C53.213 26.7398 54.7816 26.4362 70.8218 26.2338L84.838 25.9808V42.4764C84.838 57.6564 84.8886 58.972 85.7488 59.3768C86.356 59.731 89.892 58.8456 99 55C105.78 52.1158 111.555 49.0544 111.757 48.7002C111.96 48.346 112.111 37.6188 112.01 24.817L111.909 1.54096L87.115 1.49036C73.5036 1.43976 60.3476 1.59157 57.9694 1.79397Z" fill="#151515"/>
<path d="M118.791 1.6422C117.728 2.553 117.677 2.8566 117.829 13.685L117.981 24.817L127.595 25.1206C137.462 25.4748 140.245 25.829 145.912 27.6C151.073 29.1686 155.121 31.5974 158.765 35.19C165.343 41.7174 168.126 50.5218 167.67 63.273C167.367 71.3184 166.608 74.658 163.875 80.224C160.232 87.6116 153.249 92.9246 143.787 95.5052C140.245 96.416 138.019 96.6184 126.33 96.8208C116.969 96.9726 112.82 97.175 112.567 97.5798C112.364 97.934 112.162 91.7608 112.162 83.9178C112.162 74.911 111.96 69.5474 111.656 69.345C111.352 69.1932 106.364 70.223 101 72.5C88.1476 77.9142 86.4066 79.6674 86.0524 80.9324C85.9512 81.5396 85.9006 90.85 85.9512 101.729L86.103 121.463L103.813 121.615C125.47 121.767 142.117 121.109 148.088 119.743C169.846 114.834 186.139 100.919 192.616 81.6914C196.411 70.5088 196.765 54.3168 193.577 41.515C188.973 23.299 175.766 10.4972 155.476 4.62759C147.886 2.40119 135.236 0.781998 125.672 0.781998C120.865 0.781998 119.651 0.933797 118.791 1.6422Z" fill="#159640"/>
</svg>
