<svg width="400" height="117" viewBox="0 0 568 117" fill="none" xmlns="http://www.w3.org/2000/svg">
<path d="M50.0614 0.302378C42.4906 1.17461 32.2738 4.26095 25.8055 7.74986C23.0124 9.29304 18.1613 12.7819 15.1476 15.5999C3.46073 26.335 -1.61095 41.0287 0.447121 58.0707C2.79921 77.7965 13.3101 90.4103 32.6413 96.8514C40.8001 99.5351 49.1794 100.877 61.1603 101.347L71.5242 101.749L71.9652 100.139C72.7002 97.6565 72.5532 84.1705 71.7447 82.8286C71.1566 81.8222 69.6131 81.5538 62.4098 81.1513C43.5197 80.1448 34.6993 76.1863 29.5542 66.4576C22.4244 53.1058 25.5115 34.1851 35.8754 26.9389C43.2256 21.8397 49.7674 20.3636 65.7175 20.3636H77.6249V35.1244C77.6249 43.2429 77.8454 49.8852 78.2129 49.8852C80.0242 50.5562 101.34 42.1694 102.075 40.492C102.369 40.0223 102.616 30.9646 102.616 20.4978C102.616 4.9319 102.469 1.44298 101.587 1.1746C99.0141 0.30237 56.6766 -0.435661 50.0614 0.302378Z" fill="#151515"/>
<path d="M108.369 0.649213C108.075 0.850497 107.855 5.34583 107.855 10.5792V20.1066L117.337 20.5763C132.772 21.3143 140.417 23.7968 146.738 30.0366C152.545 35.8738 153.721 39.4969 153.794 51.1714C153.794 60.162 153.647 61.2355 151.883 65.0599C148.649 72.1049 143.21 76.6002 134.683 79.4852C131.008 80.6929 128.068 80.9613 116.455 81.2968L102.71 81.6994V69.7565C102.71 60.4975 102.489 57.8808 101.754 57.8808C100.331 57.5453 95.5537 58.2163 89.6735 60.9001L86.7334 62.242L84.1608 63.5839L81.2207 65.2612L79.0156 66.6031L78.8214 83.7793V101.157L98.6671 101.761C127.407 102.566 137.256 101.492 149.384 96.1918C163.423 90.0862 172.758 80.5588 177.462 67.6095C179.299 62.6445 179.447 61.3697 179.52 50.5004C179.52 40.0337 179.373 38.2221 177.829 33.7268C174.963 25.5413 172.096 21.113 165.996 15.5442C157.175 7.42576 146.591 3.2659 129.906 1.18597C121.894 0.179554 109.178 -0.155921 108.369 0.649213Z" fill="#159640"/>
<path d="M189.209 41.825V55.3905L195.241 55.15C200.526 54.9576 201.754 54.7651 204.316 53.6106C209.601 51.3016 212.377 47.1646 212.377 41.5364C212.377 37.3513 210.936 34.4169 207.519 31.6749C204.316 29.1735 201.06 28.3076 194.441 28.3076H189.209V41.825ZM201.914 34.946C205.064 36.9664 206.345 42.2579 204.53 45.4328C202.982 48.1267 199.886 49.9547 196.896 49.9547H195.615V41.7288V33.4548L197.964 33.6953C199.245 33.8396 201.06 34.4169 201.914 34.946Z" fill="#159640"/>
<path d="M219.691 38.5058C216.968 39.1793 215.473 40.2376 214.032 42.4985C212.377 45 212.27 48.2711 213.765 50.9168C216.808 56.2565 226.043 57.2185 230.794 52.6967L232.022 51.446L229.78 50.4358C227.645 49.4256 227.485 49.4256 226.47 50.2915C224.228 52.1195 219.103 50.8206 219.103 48.4154C219.103 47.6457 219.637 47.5495 225.776 47.5495H232.449V46.1064C232.449 42.6909 229.513 39.4198 225.616 38.4096C223.267 37.8324 222.146 37.8324 219.691 38.5058ZM225.723 42.8353C226.203 43.4125 226.577 44.086 226.577 44.2784C226.577 44.5189 224.922 44.6632 222.84 44.6632C218.89 44.6632 218.356 44.2784 220.011 42.6428C221.292 41.344 224.655 41.4883 225.723 42.8353Z" fill="#159640"/>
<path d="M243.634 38.4577C242.887 38.7463 241.766 39.4198 241.125 39.9489L239.897 40.9591V39.7084C239.897 38.4577 239.79 38.4096 236.694 38.4096H233.491V46.8279V55.2462H236.694H239.897V50.1952C239.897 45.4329 240.004 45.048 241.232 43.9416C242.513 42.739 244.114 42.4985 246.036 43.1719C246.944 43.5087 247.317 43.2682 248.278 41.5845L249.586 39.6835L249.506 47.4052V55.2462H252.709H255.912V49.7142C255.912 44.7594 256.019 44.0859 257.033 43.1719C257.834 42.4504 258.528 42.258 259.542 42.4985C261.998 43.0276 262.318 43.9416 262.318 49.8104V55.2462H265.521H268.724V49.4737C268.724 43.9416 268.777 43.7011 270.005 42.9795C271.553 42.0655 273.849 42.4504 274.596 43.7011C274.916 44.1821 275.13 46.9722 275.13 49.9066V55.2462H278.066H281.002V48.4635C281.002 44.5189 280.735 41.2959 280.415 40.7186C280.094 40.1895 278.76 39.3236 277.425 38.7944C274.489 37.6399 272.14 37.9285 269.792 39.6603L268.19 40.911L266.589 39.7084C263.813 37.5918 259.435 37.5918 256.873 39.7084C255.965 40.43 255.912 40.3819 255.912 39.4198C255.912 38.4096 255.698 38.3615 252.335 38.4577C250.119 38.4577 247.851 38.4096 246.837 38.2172C245.823 38.0728 244.381 38.1691 243.634 38.4577Z" fill="#159640"/>
<path d="M288.234 38.6502C281.188 40.9592 280.067 50.7725 286.473 54.2361C289.355 55.8716 291.918 55.9678 294.96 54.669C297.363 53.5626 297.576 53.5145 297.576 54.3804C297.576 55.1019 298.003 55.2463 300.512 55.2463H303.448V46.8279V38.4096H300.512C298.27 38.4096 297.576 38.5539 297.576 39.1312C297.576 40.0452 297.309 40.0452 295.815 39.1793C293.999 38.0729 290.636 37.8324 288.234 38.6502ZM296.242 43.9417C299.017 46.395 297.096 50.9168 293.359 50.9168C290.903 50.9168 288.821 49.0408 288.821 46.8279C288.821 43.2682 293.519 41.4402 296.242 43.9417Z" fill="#159640"/>
<path d="M230.621 76.8143V91.287L236.692 91.0304C242.012 90.8251 243.248 90.6198 245.827 89.3881C251.146 86.9247 253.94 82.511 253.94 76.5064C253.94 72.0415 252.489 68.9108 249.051 65.9855C245.827 63.3168 242.549 62.393 235.886 62.393H230.621V76.8143ZM243.409 69.4754C246.579 71.6309 247.869 77.2762 246.042 80.6635C244.483 83.5375 241.367 85.4877 238.358 85.4877H237.068V76.7117V67.8844L239.433 68.141C240.722 68.295 242.549 68.9108 243.409 69.4754Z" fill="#404040"/>
<path d="M299.397 69.8347C299.397 73.0679 299.343 73.1706 298.054 73.1706C296.818 73.1706 296.71 73.3759 296.71 75.48C296.71 77.5842 296.818 77.7895 298.054 77.7895C299.397 77.7895 299.397 77.8408 299.397 82.5111C299.397 86.3602 299.612 87.5919 300.472 88.9262C301.815 91.0817 304.716 91.9542 307.833 91.1844L310.09 90.6199L309.391 88.413C308.907 86.7194 308.478 86.2062 307.457 86.0522C305.576 85.847 305.307 85.2311 305.307 81.228V77.7895H307.188C309.069 77.7895 309.069 77.7895 309.069 75.48C309.069 73.1706 309.069 73.1706 307.188 73.1706H305.307V69.8347V66.4988H302.352H299.397V69.8347Z" fill="#404040"/>
<path d="M263.612 73.1192C258.776 74.2996 255.713 77.7895 255.713 82.1005C255.713 87.13 258.83 90.3632 264.633 91.3383C271.994 92.6214 278.818 86.9247 277.582 80.6122C276.561 75.2747 269.737 71.6309 263.612 73.1192ZM269.576 78.9699C272.639 81.4333 270.651 86.5141 266.674 86.5141C264.149 86.5141 262.322 84.7179 262.322 82.3571C262.322 78.354 266.513 76.4038 269.576 78.9699Z" fill="#404040"/>
<path d="M286.286 73.3759C282.203 74.8642 279.516 78.3027 279.516 82.1518C279.516 85.0258 280.483 86.8734 282.955 88.9776C286.071 91.595 290.048 92.1595 294.346 90.5685L295.689 90.1066L294.668 88.2077C293.648 86.3602 293.486 86.3088 291.122 86.4628C287.952 86.6168 285.964 84.9745 285.964 82.1518C285.964 79.3291 287.952 77.6868 291.122 77.8408C293.486 77.9948 293.648 77.9435 294.668 76.0959L295.689 74.197L294.239 73.6325C291.66 72.7087 288.436 72.606 286.286 73.3759Z" fill="#404040"/>
<path d="M319.009 73.1191C313.26 74.5561 310.143 78.6618 310.949 83.8453C311.487 87.3352 314.71 90.2605 318.848 91.0816C323.845 92.1081 328.788 90.6197 331.152 87.4378C332.872 85.1283 333.194 80.3041 331.743 77.7894C329.755 74.2995 323.522 71.9901 319.009 73.1191ZM324.919 79.0724C327.713 81.6898 325.779 86.514 322.018 86.514C317.881 86.514 315.839 81.5358 318.955 79.0211C320.89 77.4301 323.254 77.4301 324.919 79.0724Z" fill="#404040"/>
<path d="M346.304 73.0679C345.66 73.2732 344.531 73.9404 343.779 74.5562C342.006 76.0446 341.845 76.0446 341.845 74.4536C341.845 73.2219 341.684 73.1706 338.89 73.1706H335.934V82.1518V91.1331H338.89H341.845V86.2575C341.845 80.6635 342.651 78.508 344.907 77.9948C345.713 77.7895 347.003 77.8921 347.863 78.2001C349.313 78.7133 349.421 78.662 350.71 76.2498L352 73.7864L350.334 73.2219C348.507 72.606 348.078 72.606 346.304 73.0679Z" fill="#404040"/>
<path d="M221.842 17.5687C214.846 20.7312 217.435 30.7096 225.257 30.7096C228.5 30.6148 229.589 30.076 229.045 28.4596C228.5 26.8432 228.5 27.5 225.863 27.8197C223.164 28.1468 221.456 27.0018 220.795 24.439C220.079 21.4946 223.66 18.7137 226.745 19.7498C227.973 20.1622 228.356 20.2695 228.838 19.259C229.589 17.6835 229.67 17.7445 227.412 17.1447C224.751 16.6182 224.69 16.6059 221.842 17.5687Z" fill="#404040"/>
<path d="M231.041 23.6211V30.7096H232.418H233.796V23.6211V16.5327H232.418H231.041V23.6211Z" fill="#404040"/>
<path d="M237.982 18.3866C237.046 19.1499 236.66 19.8042 237.046 20.0224C237.817 20.5131 241.067 18.8228 240.847 18.0594C240.461 16.9689 239.635 17.0779 237.982 18.3866Z" fill="#404040"/>
<path d="M252.451 18.2224C252.451 19.3674 252.8 19.8043 253.957 19.8043C255.114 19.8043 255.172 19.3 255.169 18.5502C255.059 17.7868 254.563 17.2961 253.792 17.187C252.995 17.187 252.451 17.6836 252.451 18.2224Z" fill="#404040"/>
<path d="M235.999 26.3475C235.999 30.6551 235.999 30.7096 237.376 30.7096C238.753 30.7096 238.753 30.6551 238.753 26.3475C238.753 22.0399 238.753 21.9853 237.376 21.9853C235.999 21.9853 235.999 22.0399 235.999 26.3475Z" fill="#404040"/>
<path d="M241.342 22.367C241.122 22.5306 241.02 24.6076 241.02 26.8432C241.02 30.7145 240.841 30.6148 242.108 30.6148C243.571 30.5199 243.894 30.8895 243.821 27.9287C243.741 24.6879 244.83 23.6103 246.686 24.33C247.347 24.6026 247.567 25.4205 247.567 27.7106C247.567 30.546 247.622 30.7096 248.944 30.7096C250.266 30.7096 250.274 30.49 250.274 27.382C250.274 24.8192 250.101 23.9483 249.22 23.0759C248.008 21.8763 246.41 21.6582 244.758 22.5306C243.741 23.0715 243.741 23.0715 243.711 22.5306C243.741 21.9939 242.108 21.9939 241.342 22.367Z" fill="#404040"/>
<path d="M252.525 26.3475C252.525 30.6551 252.525 30.7096 253.902 30.7096C255.279 30.7096 255.279 30.6551 255.279 26.3475C255.279 22.0399 255.279 21.9853 253.902 21.9853C252.525 21.9853 252.525 22.0399 252.525 26.3475Z" fill="#404040"/>
<path d="M268.715 22.376C267.503 22.8668 266.291 25.8112 266.677 27.5015C267.283 30.1733 271.139 31.8091 272.901 30.0643C273.397 29.5735 273.562 29.5735 273.562 30.0643C273.562 30.446 274.168 30.7186 274.94 30.7186C276.317 30.7186 276.317 30.6641 276.317 26.3565C276.317 22.5396 276.207 21.9944 275.325 21.9944C274.774 21.9944 274.058 22.267 273.728 22.5941C273.287 23.0304 273.012 23.0304 272.791 22.5941C272.406 21.9944 269.982 21.8308 268.715 22.376ZM272.901 24.6662C273.342 24.9388 273.562 25.8112 273.452 26.6836C273.232 28.5921 270.942 29.5024 269.785 27.9212C269.154 27.0996 269.143 25.9843 270.037 25.0478C270.973 24.0664 271.8 23.9573 272.901 24.6662Z" fill="#404040"/>
<path d="M260.185 22.2325C257.87 22.9226 256.806 24.5199 256.806 26.3046C256.806 27.6372 256.895 28.4909 258.296 29.4665C260.063 30.6801 262.317 30.9419 264.753 30.2042L265.515 29.99L265.056 29.0476C264.598 27.872 263.877 28.2627 262.926 28.3005C261.129 28.3719 259.854 27.6134 259.854 26.3046C259.854 24.9958 261.129 24.2314 262.926 24.3028C264.266 24.3741 264.357 24.3503 264.936 23.4937L265.515 22.6132L264.692 22.3515C263.231 21.9231 261.403 21.8755 260.185 22.2325Z" fill="#404040"/>
<path d="M194.852 112.264C193.488 112.264 192.359 111.714 191.464 110.614C190.569 109.499 190.122 108.047 190.122 106.258C190.122 104.469 190.43 102.841 191.046 101.374C191.662 99.8927 192.542 98.69 193.686 97.766C194.83 96.842 196.047 96.38 197.338 96.38C198.643 96.38 199.692 96.6733 200.484 97.26C201.291 97.8467 201.694 98.5507 201.694 99.372C201.694 100.179 201.452 100.868 200.968 101.44C200.499 101.44 199.971 101.337 199.384 101.132C198.797 100.927 198.357 100.677 198.064 100.384L198.482 98.162C198.13 97.942 197.668 97.832 197.096 97.832C196.201 97.832 195.409 98.602 194.72 100.142C194.031 101.667 193.686 103.552 193.686 105.796C193.686 107.277 193.928 108.355 194.412 109.03C194.911 109.69 195.512 110.02 196.216 110.02C197.375 110.02 198.489 109.477 199.56 108.392L200.462 109.206C200.301 109.441 200.007 109.763 199.582 110.174C199.157 110.585 198.739 110.929 198.328 111.208C197.917 111.472 197.397 111.714 196.766 111.934C196.135 112.154 195.497 112.264 194.852 112.264ZM205.104 112.264C204.092 112.264 203.3 111.912 202.728 111.208C202.156 110.489 201.87 109.492 201.87 108.216C201.87 106.588 202.302 105.187 203.168 104.014C204.048 102.841 205.258 102.254 206.798 102.254L207.59 102.298C207.839 102.166 208.118 102.1 208.426 102.1C209.584 102.1 210.164 103.193 210.164 105.378C210.765 105.349 211.374 105.268 211.99 105.136L212.342 105.048L212.474 105.906C211.99 106.111 211.337 106.295 210.516 106.456L210.076 106.544C209.797 108.084 209.232 109.426 208.382 110.57C207.531 111.699 206.438 112.264 205.104 112.264ZM206.292 110.372C206.908 110.372 207.458 109.976 207.942 109.184C208.44 108.392 208.785 107.556 208.976 106.676C207.406 106.676 206.622 106.089 206.622 104.916C206.622 104.447 206.717 104.007 206.908 103.596L207.018 103.376C206.959 103.347 206.886 103.332 206.798 103.332C206.71 103.332 206.644 103.347 206.6 103.376C206.233 103.611 205.888 104.161 205.566 105.026C205.243 105.891 205.082 106.881 205.082 107.996C205.082 109.58 205.485 110.372 206.292 110.372ZM211.738 112.066H211.32C211.32 111.377 211.525 110.057 211.936 108.106C212.361 106.155 212.574 105.048 212.574 104.784C212.574 104.3 212.368 103.787 211.958 103.244L211.76 102.98L211.782 102.694C212.574 102.474 213.842 102.364 215.588 102.364C215.778 102.613 215.881 103.068 215.896 103.728C217.172 102.745 218.25 102.254 219.13 102.254C219.658 102.254 220.076 102.437 220.384 102.804C220.706 103.171 220.868 103.633 220.868 104.19C220.868 104.733 220.699 105.679 220.362 107.028C220.024 108.377 219.856 109.287 219.856 109.756C219.856 110.211 219.914 110.438 220.032 110.438C220.12 110.438 220.428 110.299 220.956 110.02L221.22 109.888L221.616 110.658C221.484 110.775 221.308 110.922 221.088 111.098C220.868 111.274 220.457 111.516 219.856 111.824C219.269 112.117 218.741 112.264 218.272 112.264C217.201 112.264 216.666 111.655 216.666 110.438C216.666 109.925 216.827 108.979 217.15 107.6C217.487 106.221 217.656 105.334 217.656 104.938C217.656 104.542 217.531 104.344 217.282 104.344C216.856 104.344 216.336 104.527 215.72 104.894C215.676 105.143 215.529 105.803 215.28 106.874C214.766 109.177 214.51 110.805 214.51 111.758C213.996 111.963 213.072 112.066 211.738 112.066ZM229.179 102.518C229.15 102.841 229.018 103.266 228.783 103.794C228.226 103.735 227.676 103.706 227.133 103.706H227.045C226.737 107.329 226.451 110.005 226.187 111.736C225.923 113.467 225.579 114.677 225.153 115.366C224.625 115.351 224.075 115.278 223.503 115.146C222.946 115.029 222.565 114.904 222.359 114.772C222.711 113.687 223.063 112.051 223.415 109.866C223.782 107.681 224.017 105.664 224.119 103.816C223.709 103.845 223.254 103.897 222.755 103.97C222.711 103.779 222.689 103.589 222.689 103.398C222.689 103.193 222.719 102.899 222.777 102.518H224.185C224.215 101.242 224.281 100.274 224.383 99.614C224.559 98.4407 224.963 97.524 225.593 96.864C226.239 96.1893 227.067 95.852 228.079 95.852C228.725 95.852 229.231 95.9987 229.597 96.292C229.979 96.5707 230.169 97.018 230.169 97.634C230.169 98.25 229.891 99.0493 229.333 100.032C228.776 101 228.043 101.829 227.133 102.518H229.179ZM227.177 101.132C227.749 100.648 228.197 100.113 228.519 99.526C228.842 98.9393 229.003 98.4113 229.003 97.942C229.003 97.458 228.849 97.216 228.541 97.216C227.896 97.216 227.485 97.9567 227.309 99.438C227.251 99.9367 227.207 100.501 227.177 101.132ZM234.195 103.618C234.195 104.234 233.997 105.297 233.601 106.808C233.205 108.304 233.007 109.287 233.007 109.756C233.007 110.211 233.073 110.438 233.205 110.438C233.293 110.438 233.63 110.299 234.217 110.02L234.481 109.888L234.855 110.658C234.723 110.775 234.547 110.922 234.327 111.098C234.107 111.274 233.696 111.516 233.095 111.824C232.493 112.117 231.936 112.264 231.423 112.264C230.909 112.264 230.506 112.11 230.213 111.802C229.919 111.479 229.773 111.054 229.773 110.526C229.773 109.983 229.956 109.03 230.323 107.666C230.689 106.287 230.873 105.393 230.873 104.982C230.873 104.366 230.682 103.787 230.301 103.244L230.103 102.98L230.125 102.694C230.902 102.474 232.163 102.364 233.909 102.364C234.099 102.584 234.195 103.002 234.195 103.618ZM231.687 99.966C231.393 99.6727 231.247 99.284 231.247 98.8C231.247 98.316 231.445 97.8907 231.841 97.524C232.251 97.1573 232.721 96.974 233.249 96.974C233.777 96.974 234.187 97.1207 234.481 97.414C234.774 97.7073 234.921 98.096 234.921 98.58C234.921 99.0493 234.708 99.4673 234.283 99.834C233.872 100.201 233.41 100.384 232.897 100.384C232.383 100.384 231.98 100.245 231.687 99.966ZM242.631 102.892C242.66 102.863 242.741 102.672 242.873 102.32C243.562 102.32 244.486 102.525 245.645 102.936C245.278 104.153 244.985 105.429 244.765 106.764C244.545 108.084 244.435 109.03 244.435 109.602C244.435 110.159 244.494 110.438 244.611 110.438C244.699 110.438 245.022 110.299 245.579 110.02L245.843 109.888L246.239 110.658C246.107 110.775 245.931 110.922 245.711 111.098C245.506 111.274 245.11 111.516 244.523 111.824C243.936 112.117 243.408 112.264 242.939 112.264C242.03 112.264 241.502 111.853 241.355 111.032C240.416 111.853 239.566 112.264 238.803 112.264C238.055 112.264 237.417 111.971 236.889 111.384C236.376 110.797 236.119 109.873 236.119 108.612C236.119 106.647 236.522 105.099 237.329 103.97C238.136 102.826 239.111 102.254 240.255 102.254C241.076 102.254 241.868 102.467 242.631 102.892ZM240.123 110.394C240.475 110.394 240.871 110.255 241.311 109.976C241.414 107.908 241.758 105.862 242.345 103.838C241.905 103.647 241.531 103.552 241.223 103.552C240.695 103.552 240.24 104.073 239.859 105.114C239.492 106.141 239.309 107.277 239.309 108.524C239.309 109.771 239.58 110.394 240.123 110.394ZM247.679 112.066H247.261C247.261 111.377 247.466 110.057 247.877 108.106C248.302 106.155 248.515 105.048 248.515 104.784C248.515 104.3 248.31 103.787 247.899 103.244L247.701 102.98L247.723 102.694C248.515 102.474 249.784 102.364 251.529 102.364C251.72 102.613 251.822 103.068 251.837 103.728C253.113 102.745 254.191 102.254 255.071 102.254C255.599 102.254 256.017 102.437 256.325 102.804C256.648 103.171 256.809 103.633 256.809 104.19C256.809 104.733 256.64 105.679 256.303 107.028C255.966 108.377 255.797 109.287 255.797 109.756C255.797 110.211 255.856 110.438 255.973 110.438C256.061 110.438 256.369 110.299 256.897 110.02L257.161 109.888L257.557 110.658C257.425 110.775 257.249 110.922 257.029 111.098C256.809 111.274 256.398 111.516 255.797 111.824C255.21 112.117 254.682 112.264 254.213 112.264C253.142 112.264 252.607 111.655 252.607 110.438C252.607 109.925 252.768 108.979 253.091 107.6C253.428 106.221 253.597 105.334 253.597 104.938C253.597 104.542 253.472 104.344 253.223 104.344C252.798 104.344 252.277 104.527 251.661 104.894C251.617 105.143 251.47 105.803 251.221 106.874C250.708 109.177 250.451 110.805 250.451 111.758C249.938 111.963 249.014 112.066 247.679 112.066ZM263.757 103.354C263.17 103.354 262.701 103.845 262.349 104.828C261.997 105.796 261.821 106.837 261.821 107.952C261.821 109.712 262.364 110.592 263.449 110.592C263.801 110.592 264.175 110.511 264.571 110.35C264.967 110.174 265.282 110.005 265.517 109.844L265.847 109.58L266.353 110.262C266.25 110.365 266.111 110.504 265.935 110.68C265.759 110.841 265.392 111.091 264.835 111.428C264.292 111.765 263.742 112 263.185 112.132C262.818 112.396 262.496 112.719 262.217 113.1C261.953 113.481 261.821 113.848 261.821 114.2C261.821 114.567 261.997 114.75 262.349 114.75C262.701 114.75 263.119 114.611 263.603 114.332L263.845 114.178L264.241 114.794C264.138 114.897 263.999 115.021 263.823 115.168C263.647 115.329 263.295 115.535 262.767 115.784C262.239 116.048 261.748 116.18 261.293 116.18C260.838 116.18 260.472 116.041 260.193 115.762C259.914 115.498 259.775 115.146 259.775 114.706C259.775 114.281 259.958 113.841 260.325 113.386C260.692 112.946 261.11 112.565 261.579 112.242C260.582 112.139 259.834 111.721 259.335 110.988C258.851 110.255 258.609 109.301 258.609 108.128C258.609 106.383 259.086 104.967 260.039 103.882C261.007 102.797 262.246 102.254 263.757 102.254C264.74 102.254 265.517 102.481 266.089 102.936C266.676 103.376 266.969 103.926 266.969 104.586C266.969 105.231 266.764 105.789 266.353 106.258C265.986 106.258 265.561 106.177 265.077 106.016C264.593 105.855 264.226 105.657 263.977 105.422L264.307 103.486C264.175 103.398 263.992 103.354 263.757 103.354ZM274.437 102.892C274.467 102.863 274.547 102.672 274.679 102.32C275.369 102.32 276.293 102.525 277.451 102.936C277.085 104.153 276.791 105.429 276.571 106.764C276.351 108.084 276.241 109.03 276.241 109.602C276.241 110.159 276.3 110.438 276.417 110.438C276.505 110.438 276.828 110.299 277.385 110.02L277.649 109.888L278.045 110.658C277.913 110.775 277.737 110.922 277.517 111.098C277.312 111.274 276.916 111.516 276.329 111.824C275.743 112.117 275.215 112.264 274.745 112.264C273.836 112.264 273.308 111.853 273.161 111.032C272.223 111.853 271.372 112.264 270.609 112.264C269.861 112.264 269.223 111.971 268.695 111.384C268.182 110.797 267.925 109.873 267.925 108.612C267.925 106.647 268.329 105.099 269.135 103.97C269.942 102.826 270.917 102.254 272.061 102.254C272.883 102.254 273.675 102.467 274.437 102.892ZM271.929 110.394C272.281 110.394 272.677 110.255 273.117 109.976C273.22 107.908 273.565 105.862 274.151 103.838C273.711 103.647 273.337 103.552 273.029 103.552C272.501 103.552 272.047 104.073 271.665 105.114C271.299 106.141 271.115 107.277 271.115 108.524C271.115 109.771 271.387 110.394 271.929 110.394ZM283.648 108.194C283.648 106.361 284.198 104.916 285.298 103.86C286.412 102.789 287.674 102.254 289.082 102.254C289.947 102.254 290.658 102.467 291.216 102.892C291.773 103.317 292.052 103.889 292.052 104.608C292.052 105.312 291.868 105.906 291.502 106.39C291.15 106.874 290.717 107.248 290.204 107.512C289.162 108.025 288.209 108.348 287.344 108.48L286.816 108.546C286.918 109.925 287.483 110.614 288.51 110.614C288.862 110.614 289.236 110.526 289.632 110.35C290.028 110.174 290.336 109.998 290.556 109.822L290.886 109.558L291.414 110.262C291.296 110.423 291.062 110.636 290.71 110.9C290.358 111.164 290.028 111.384 289.72 111.56C288.869 112.029 287.938 112.264 286.926 112.264C285.914 112.264 285.114 111.905 284.528 111.186C283.941 110.467 283.648 109.47 283.648 108.194ZM286.794 107.468C287.542 107.336 288.136 107.021 288.576 106.522C289.016 106.023 289.236 105.378 289.236 104.586C289.236 103.794 289.001 103.398 288.532 103.398C287.974 103.398 287.542 103.875 287.234 104.828C286.94 105.767 286.794 106.647 286.794 107.468ZM302.383 116.928C302.295 116.752 302.251 116.385 302.251 115.828C302.251 115.271 302.508 113.709 303.021 111.142C302.097 111.89 301.247 112.264 300.469 112.264C299.692 112.264 299.061 111.956 298.577 111.34C298.093 110.724 297.851 109.807 297.851 108.59C297.851 106.551 298.262 104.989 299.083 103.904C299.905 102.804 300.887 102.254 302.031 102.254C302.647 102.254 303.388 102.423 304.253 102.76C304.987 102.496 305.925 102.364 307.069 102.364C307.113 102.628 307.135 102.929 307.135 103.266C307.135 104.865 306.849 107.101 306.277 109.976C305.72 112.851 305.441 114.97 305.441 116.334C304.649 116.657 303.63 116.855 302.383 116.928ZM302.999 103.552C302.442 103.552 301.973 104.043 301.591 105.026C301.225 105.994 301.041 107.131 301.041 108.436C301.041 109.741 301.32 110.394 301.877 110.394C302.376 110.394 302.845 110.203 303.285 109.822C303.784 107.299 304.033 105.29 304.033 103.794C303.623 103.633 303.278 103.552 302.999 103.552ZM308.736 110.35C308.736 109.719 308.926 108.649 309.308 107.138C309.689 105.613 309.88 104.681 309.88 104.344C309.88 103.992 309.616 103.53 309.088 102.958L309.11 102.672C310.107 102.467 311.42 102.364 313.048 102.364C313.121 102.555 313.158 102.899 313.158 103.398C313.158 103.897 312.952 104.96 312.542 106.588C312.131 108.216 311.926 109.228 311.926 109.624C311.926 110.02 312.072 110.218 312.366 110.218C312.791 110.218 313.282 110.064 313.84 109.756C313.898 109.404 314.045 108.729 314.28 107.732C314.808 105.385 315.072 103.706 315.072 102.694C315.585 102.489 316.509 102.386 317.844 102.386H318.262C318.262 103.075 318.056 104.425 317.646 106.434C317.235 108.429 317.03 109.602 317.03 109.954C317.03 110.291 317.103 110.46 317.25 110.46C317.338 110.46 317.756 110.284 318.504 109.932L318.922 110.636C317.616 111.721 316.472 112.264 315.49 112.264C315.02 112.264 314.617 112.132 314.28 111.868C313.957 111.604 313.774 111.259 313.73 110.834C312.542 111.802 311.464 112.286 310.496 112.286C309.982 112.286 309.557 112.117 309.22 111.78C308.897 111.443 308.736 110.966 308.736 110.35ZM326.534 102.892C326.564 102.863 326.644 102.672 326.776 102.32C327.466 102.32 328.39 102.525 329.548 102.936C329.182 104.153 328.888 105.429 328.668 106.764C328.448 108.084 328.338 109.03 328.338 109.602C328.338 110.159 328.397 110.438 328.514 110.438C328.602 110.438 328.925 110.299 329.482 110.02L329.746 109.888L330.142 110.658C330.01 110.775 329.834 110.922 329.614 111.098C329.409 111.274 329.013 111.516 328.426 111.824C327.84 112.117 327.312 112.264 326.842 112.264C325.933 112.264 325.405 111.853 325.258 111.032C324.32 111.853 323.469 112.264 322.706 112.264C321.958 112.264 321.32 111.971 320.792 111.384C320.279 110.797 320.022 109.873 320.022 108.612C320.022 106.647 320.426 105.099 321.232 103.97C322.039 102.826 323.014 102.254 324.158 102.254C324.98 102.254 325.772 102.467 326.534 102.892ZM324.026 110.394C324.378 110.394 324.774 110.255 325.214 109.976C325.317 107.908 325.662 105.862 326.248 103.838C325.808 103.647 325.434 103.552 325.126 103.552C324.598 103.552 324.144 104.073 323.762 105.114C323.396 106.141 323.212 107.277 323.212 108.524C323.212 109.771 323.484 110.394 324.026 110.394ZM332.683 112.264C332.184 112.264 331.766 112.095 331.429 111.758C331.106 111.421 330.945 110.951 330.945 110.35C330.945 109.734 331.304 107.791 332.023 104.52C332.756 101.235 333.123 98.866 333.123 97.414L332.991 96.446C334.135 96.05 335.205 95.852 336.203 95.852C336.349 96.0573 336.423 96.4167 336.423 96.93C336.423 98.1033 336.049 100.377 335.301 103.75C334.567 107.109 334.201 109.067 334.201 109.624C334.201 110.167 334.267 110.438 334.399 110.438L335.939 109.888L336.335 110.658C335.836 111.054 335.227 111.421 334.509 111.758C333.805 112.095 333.196 112.264 332.683 112.264ZM341.826 103.618C341.826 104.234 341.628 105.297 341.232 106.808C340.836 108.304 340.638 109.287 340.638 109.756C340.638 110.211 340.704 110.438 340.836 110.438C340.924 110.438 341.262 110.299 341.848 110.02L342.112 109.888L342.486 110.658C342.354 110.775 342.178 110.922 341.958 111.098C341.738 111.274 341.328 111.516 340.726 111.824C340.125 112.117 339.568 112.264 339.054 112.264C338.541 112.264 338.138 112.11 337.844 111.802C337.551 111.479 337.404 111.054 337.404 110.526C337.404 109.983 337.588 109.03 337.954 107.666C338.321 106.287 338.504 105.393 338.504 104.982C338.504 104.366 338.314 103.787 337.932 103.244L337.734 102.98L337.756 102.694C338.534 102.474 339.795 102.364 341.54 102.364C341.731 102.584 341.826 103.002 341.826 103.618ZM339.318 99.966C339.025 99.6727 338.878 99.284 338.878 98.8C338.878 98.316 339.076 97.8907 339.472 97.524C339.883 97.1573 340.352 96.974 340.88 96.974C341.408 96.974 341.819 97.1207 342.112 97.414C342.406 97.7073 342.552 98.096 342.552 98.58C342.552 99.0493 342.34 99.4673 341.914 99.834C341.504 100.201 341.042 100.384 340.528 100.384C340.015 100.384 339.612 100.245 339.318 99.966ZM354.134 110.658C352.888 111.729 351.788 112.264 350.834 112.264C349.896 112.264 349.353 111.795 349.206 110.856C348.766 111.296 348.275 111.641 347.732 111.89C347.19 112.139 346.713 112.264 346.302 112.264C345.598 112.264 344.997 111.956 344.498 111.34C344 110.724 343.75 109.771 343.75 108.48C343.75 106.544 344.161 105.026 344.982 103.926C345.804 102.811 346.728 102.254 347.754 102.254C348.796 102.254 349.668 102.489 350.372 102.958C350.827 100.582 351.054 98.712 351.054 97.348L350.944 96.424C352.044 96.0427 353.122 95.852 354.178 95.852C354.296 96.1013 354.354 96.3873 354.354 96.71C354.354 97.7807 354.032 99.9587 353.386 103.244C352.741 106.515 352.418 108.737 352.418 109.91C352.418 110.262 352.499 110.438 352.66 110.438C352.748 110.438 353.027 110.299 353.496 110.02L353.716 109.888L354.134 110.658ZM348.832 103.552C348.319 103.552 347.872 104.058 347.49 105.07C347.124 106.082 346.94 107.087 346.94 108.084C346.94 109.067 347.006 109.697 347.138 109.976C347.285 110.255 347.498 110.394 347.776 110.394C348.26 110.394 348.737 110.196 349.206 109.8C349.25 109.213 349.58 107.263 350.196 103.948C349.698 103.684 349.243 103.552 348.832 103.552ZM361.745 102.892C361.775 102.863 361.855 102.672 361.987 102.32C362.677 102.32 363.601 102.525 364.759 102.936C364.393 104.153 364.099 105.429 363.879 106.764C363.659 108.084 363.549 109.03 363.549 109.602C363.549 110.159 363.608 110.438 363.725 110.438C363.813 110.438 364.136 110.299 364.693 110.02L364.957 109.888L365.353 110.658C365.221 110.775 365.045 110.922 364.825 111.098C364.62 111.274 364.224 111.516 363.637 111.824C363.051 112.117 362.523 112.264 362.053 112.264C361.144 112.264 360.616 111.853 360.469 111.032C359.531 111.853 358.68 112.264 357.917 112.264C357.169 112.264 356.531 111.971 356.003 111.384C355.49 110.797 355.233 109.873 355.233 108.612C355.233 106.647 355.637 105.099 356.443 103.97C357.25 102.826 358.225 102.254 359.369 102.254C360.191 102.254 360.983 102.467 361.745 102.892ZM359.237 110.394C359.589 110.394 359.985 110.255 360.425 109.976C360.528 107.908 360.873 105.862 361.459 103.838C361.019 103.647 360.645 103.552 360.337 103.552C359.809 103.552 359.355 104.073 358.973 105.114C358.607 106.141 358.423 107.277 358.423 108.524C358.423 109.771 358.695 110.394 359.237 110.394ZM376.628 110.658C375.381 111.729 374.281 112.264 373.328 112.264C372.389 112.264 371.846 111.795 371.7 110.856C371.26 111.296 370.768 111.641 370.226 111.89C369.683 112.139 369.206 112.264 368.796 112.264C368.092 112.264 367.49 111.956 366.992 111.34C366.493 110.724 366.244 109.771 366.244 108.48C366.244 106.544 366.654 105.026 367.476 103.926C368.297 102.811 369.221 102.254 370.248 102.254C371.289 102.254 372.162 102.489 372.866 102.958C373.32 100.582 373.548 98.712 373.548 97.348L373.438 96.424C374.538 96.0427 375.616 95.852 376.672 95.852C376.789 96.1013 376.848 96.3873 376.848 96.71C376.848 97.7807 376.525 99.9587 375.88 103.244C375.234 106.515 374.912 108.737 374.912 109.91C374.912 110.262 374.992 110.438 375.154 110.438C375.242 110.438 375.52 110.299 375.99 110.02L376.21 109.888L376.628 110.658ZM371.326 103.552C370.812 103.552 370.365 104.058 369.984 105.07C369.617 106.082 369.434 107.087 369.434 108.084C369.434 109.067 369.5 109.697 369.632 109.976C369.778 110.255 369.991 110.394 370.27 110.394C370.754 110.394 371.23 110.196 371.7 109.8C371.744 109.213 372.074 107.263 372.69 103.948C372.191 103.684 371.736 103.552 371.326 103.552ZM377.595 108.194C377.595 106.361 378.145 104.916 379.245 103.86C380.359 102.789 381.621 102.254 383.029 102.254C383.894 102.254 384.605 102.467 385.163 102.892C385.72 103.317 385.999 103.889 385.999 104.608C385.999 105.312 385.815 105.906 385.449 106.39C385.097 106.874 384.664 107.248 384.151 107.512C383.109 108.025 382.156 108.348 381.291 108.48L380.763 108.546C380.865 109.925 381.43 110.614 382.457 110.614C382.809 110.614 383.183 110.526 383.579 110.35C383.975 110.174 384.283 109.998 384.503 109.822L384.833 109.558L385.361 110.262C385.243 110.423 385.009 110.636 384.657 110.9C384.305 111.164 383.975 111.384 383.667 111.56C382.816 112.029 381.885 112.264 380.873 112.264C379.861 112.264 379.061 111.905 378.475 111.186C377.888 110.467 377.595 109.47 377.595 108.194ZM380.741 107.468C381.489 107.336 382.083 107.021 382.523 106.522C382.963 106.023 383.183 105.378 383.183 104.586C383.183 103.794 382.948 103.398 382.479 103.398C381.921 103.398 381.489 103.875 381.181 104.828C380.887 105.767 380.741 106.647 380.741 107.468ZM391.116 116.928C391.043 116.752 391.006 116.363 391.006 115.762C391.006 115.161 391.292 113.547 391.864 110.922C392.436 108.282 392.722 106.251 392.722 104.828C392.722 104.549 392.656 104.256 392.524 103.948C392.392 103.625 392.253 103.376 392.106 103.2L391.908 102.958L391.93 102.672C392.619 102.452 393.837 102.342 395.582 102.342C395.743 102.65 395.846 103.083 395.89 103.64C397.019 102.716 397.958 102.254 398.706 102.254C399.469 102.254 400.077 102.569 400.532 103.2C401.001 103.831 401.236 104.755 401.236 105.972C401.236 108.099 400.847 109.683 400.07 110.724C399.293 111.751 398.31 112.264 397.122 112.264C396.506 112.264 395.993 112.176 395.582 112L395.362 111.912L395.516 111.054C395.648 111.083 395.802 111.098 395.978 111.098C396.359 111.098 396.689 110.922 396.968 110.57C397.261 110.218 397.481 109.771 397.628 109.228C397.921 108.143 398.068 107.138 398.068 106.214C398.068 104.894 397.797 104.234 397.254 104.234C396.829 104.234 396.374 104.403 395.89 104.74C395.831 105.767 395.531 107.563 394.988 110.13C394.445 112.697 394.174 114.765 394.174 116.334C393.382 116.657 392.363 116.855 391.116 116.928ZM409.234 102.892C409.264 102.863 409.344 102.672 409.476 102.32C410.166 102.32 411.09 102.525 412.248 102.936C411.882 104.153 411.588 105.429 411.368 106.764C411.148 108.084 411.038 109.03 411.038 109.602C411.038 110.159 411.097 110.438 411.214 110.438C411.302 110.438 411.625 110.299 412.182 110.02L412.446 109.888L412.842 110.658C412.71 110.775 412.534 110.922 412.314 111.098C412.109 111.274 411.713 111.516 411.126 111.824C410.54 112.117 410.012 112.264 409.542 112.264C408.633 112.264 408.105 111.853 407.958 111.032C407.02 111.853 406.169 112.264 405.406 112.264C404.658 112.264 404.02 111.971 403.492 111.384C402.979 110.797 402.722 109.873 402.722 108.612C402.722 106.647 403.126 105.099 403.932 103.97C404.739 102.826 405.714 102.254 406.858 102.254C407.68 102.254 408.472 102.467 409.234 102.892ZM406.726 110.394C407.078 110.394 407.474 110.255 407.914 109.976C408.017 107.908 408.362 105.862 408.948 103.838C408.508 103.647 408.134 103.552 407.826 103.552C407.298 103.552 406.844 104.073 406.462 105.114C406.096 106.141 405.912 107.277 405.912 108.524C405.912 109.771 406.184 110.394 406.726 110.394ZM414.129 112.066H413.975C413.945 111.949 413.931 111.685 413.931 111.274C413.931 110.849 414.129 109.719 414.525 107.886C414.921 106.053 415.119 105.004 415.119 104.74C415.119 104.285 414.913 103.787 414.503 103.244L414.305 102.98L414.327 102.694C415.119 102.474 416.387 102.364 418.133 102.364C418.309 102.745 418.397 103.281 418.397 103.97C418.558 103.706 418.895 103.354 419.409 102.914C419.922 102.474 420.45 102.254 420.993 102.254C421.785 102.254 422.181 102.943 422.181 104.322C422.107 104.41 422.005 104.527 421.873 104.674C421.755 104.806 421.506 104.997 421.125 105.246C420.758 105.495 420.399 105.649 420.047 105.708C420.032 105.708 419.907 105.51 419.673 105.114C419.438 104.718 419.262 104.52 419.145 104.52C418.778 104.652 418.455 104.872 418.177 105.18C417.502 108.216 417.165 110.181 417.165 111.076C417.165 111.399 417.172 111.626 417.187 111.758C416.673 111.963 415.654 112.066 414.129 112.066ZM428.698 102.892C428.728 102.863 428.808 102.672 428.94 102.32C429.63 102.32 430.554 102.525 431.712 102.936C431.346 104.153 431.052 105.429 430.832 106.764C430.612 108.084 430.502 109.03 430.502 109.602C430.502 110.159 430.561 110.438 430.678 110.438C430.766 110.438 431.089 110.299 431.646 110.02L431.91 109.888L432.306 110.658C432.174 110.775 431.998 110.922 431.778 111.098C431.573 111.274 431.177 111.516 430.59 111.824C430.004 112.117 429.476 112.264 429.006 112.264C428.097 112.264 427.569 111.853 427.422 111.032C426.484 111.853 425.633 112.264 424.87 112.264C424.122 112.264 423.484 111.971 422.956 111.384C422.443 110.797 422.186 109.873 422.186 108.612C422.186 106.647 422.59 105.099 423.396 103.97C424.203 102.826 425.178 102.254 426.322 102.254C427.144 102.254 427.936 102.467 428.698 102.892ZM426.19 110.394C426.542 110.394 426.938 110.255 427.378 109.976C427.481 107.908 427.826 105.862 428.412 103.838C427.972 103.647 427.598 103.552 427.29 103.552C426.762 103.552 426.308 104.073 425.926 105.114C425.56 106.141 425.376 107.277 425.376 108.524C425.376 109.771 425.648 110.394 426.19 110.394ZM444.795 109.118C444.795 110.042 444.384 110.797 443.563 111.384C442.756 111.971 441.832 112.264 440.791 112.264C439.75 112.264 438.921 112.044 438.305 111.604C437.704 111.164 437.403 110.775 437.403 110.438C437.403 110.233 437.66 109.903 438.173 109.448C438.686 108.979 439.119 108.693 439.471 108.59C440.204 109.133 440.806 109.991 441.275 111.164C441.818 111.12 442.089 110.863 442.089 110.394C442.089 109.719 441.495 108.766 440.307 107.534C439.119 106.287 438.525 105.297 438.525 104.564C438.525 103.831 438.855 103.266 439.515 102.87C440.175 102.459 440.967 102.254 441.891 102.254C442.83 102.254 443.534 102.423 444.003 102.76C444.472 103.083 444.707 103.53 444.707 104.102C444.707 104.659 444.26 105.437 443.365 106.434C443.468 106.537 443.6 106.676 443.761 106.852C443.922 107.013 444.135 107.329 444.399 107.798C444.663 108.267 444.795 108.707 444.795 109.118ZM442.683 105.664C443.299 105.136 443.607 104.615 443.607 104.102C443.607 103.589 443.255 103.332 442.551 103.332C442.214 103.332 441.935 103.405 441.715 103.552C441.495 103.684 441.385 103.838 441.385 104.014C441.385 104.337 441.708 104.791 442.353 105.378L442.683 105.664ZM446.433 110.35C446.433 109.719 446.624 108.649 447.005 107.138C447.387 105.613 447.577 104.681 447.577 104.344C447.577 103.992 447.313 103.53 446.785 102.958L446.807 102.672C447.805 102.467 449.117 102.364 450.745 102.364C450.819 102.555 450.855 102.899 450.855 103.398C450.855 103.897 450.65 104.96 450.239 106.588C449.829 108.216 449.623 109.228 449.623 109.624C449.623 110.02 449.77 110.218 450.063 110.218C450.489 110.218 450.98 110.064 451.537 109.756C451.596 109.404 451.743 108.729 451.977 107.732C452.505 105.385 452.769 103.706 452.769 102.694C453.283 102.489 454.207 102.386 455.541 102.386H455.959C455.959 103.075 455.754 104.425 455.343 106.434C454.933 108.429 454.727 109.602 454.727 109.954C454.727 110.291 454.801 110.46 454.947 110.46C455.035 110.46 455.453 110.284 456.201 109.932L456.619 110.636C455.314 111.721 454.17 112.264 453.187 112.264C452.718 112.264 452.315 112.132 451.977 111.868C451.655 111.604 451.471 111.259 451.427 110.834C450.239 111.802 449.161 112.286 448.193 112.286C447.68 112.286 447.255 112.117 446.917 111.78C446.595 111.443 446.433 110.966 446.433 110.35ZM464.232 102.892C464.261 102.863 464.342 102.672 464.474 102.32C465.163 102.32 466.087 102.525 467.246 102.936C466.879 104.153 466.586 105.429 466.366 106.764C466.146 108.084 466.036 109.03 466.036 109.602C466.036 110.159 466.095 110.438 466.212 110.438C466.3 110.438 466.623 110.299 467.18 110.02L467.444 109.888L467.84 110.658C467.708 110.775 467.532 110.922 467.312 111.098C467.107 111.274 466.711 111.516 466.124 111.824C465.537 112.117 465.009 112.264 464.54 112.264C463.631 112.264 463.103 111.853 462.956 111.032C462.017 111.853 461.167 112.264 460.404 112.264C459.656 112.264 459.018 111.971 458.49 111.384C457.977 110.797 457.72 109.873 457.72 108.612C457.72 106.647 458.123 105.099 458.93 103.97C459.737 102.826 460.712 102.254 461.856 102.254C462.677 102.254 463.469 102.467 464.232 102.892ZM461.724 110.394C462.076 110.394 462.472 110.255 462.912 109.976C463.015 107.908 463.359 105.862 463.946 103.838C463.506 103.647 463.132 103.552 462.824 103.552C462.296 103.552 461.841 104.073 461.46 105.114C461.093 106.141 460.91 107.277 460.91 108.524C460.91 109.771 461.181 110.394 461.724 110.394ZM480.328 109.118C480.328 110.042 479.918 110.797 479.096 111.384C478.29 111.971 477.366 112.264 476.324 112.264C475.283 112.264 474.454 112.044 473.838 111.604C473.237 111.164 472.936 110.775 472.936 110.438C472.936 110.233 473.193 109.903 473.706 109.448C474.22 108.979 474.652 108.693 475.004 108.59C475.738 109.133 476.339 109.991 476.808 111.164C477.351 111.12 477.622 110.863 477.622 110.394C477.622 109.719 477.028 108.766 475.84 107.534C474.652 106.287 474.058 105.297 474.058 104.564C474.058 103.831 474.388 103.266 475.048 102.87C475.708 102.459 476.5 102.254 477.424 102.254C478.363 102.254 479.067 102.423 479.536 102.76C480.006 103.083 480.24 103.53 480.24 104.102C480.24 104.659 479.793 105.437 478.898 106.434C479.001 106.537 479.133 106.676 479.294 106.852C479.456 107.013 479.668 107.329 479.932 107.798C480.196 108.267 480.328 108.707 480.328 109.118ZM478.216 105.664C478.832 105.136 479.14 104.615 479.14 104.102C479.14 103.589 478.788 103.332 478.084 103.332C477.747 103.332 477.468 103.405 477.248 103.552C477.028 103.684 476.918 103.838 476.918 104.014C476.918 104.337 477.241 104.791 477.886 105.378L478.216 105.664ZM488.347 102.892C488.376 102.863 488.457 102.672 488.589 102.32C489.278 102.32 490.202 102.525 491.361 102.936C490.994 104.153 490.701 105.429 490.481 106.764C490.261 108.084 490.151 109.03 490.151 109.602C490.151 110.159 490.209 110.438 490.327 110.438C490.415 110.438 490.737 110.299 491.295 110.02L491.559 109.888L491.955 110.658C491.823 110.775 491.647 110.922 491.427 111.098C491.221 111.274 490.825 111.516 490.239 111.824C489.652 112.117 489.124 112.264 488.655 112.264C487.745 112.264 487.217 111.853 487.071 111.032C486.132 111.853 485.281 112.264 484.519 112.264C483.771 112.264 483.133 111.971 482.605 111.384C482.091 110.797 481.835 109.873 481.835 108.612C481.835 106.647 482.238 105.099 483.045 103.97C483.851 102.826 484.827 102.254 485.971 102.254C486.792 102.254 487.584 102.467 488.347 102.892ZM485.839 110.394C486.191 110.394 486.587 110.255 487.027 109.976C487.129 107.908 487.474 105.862 488.061 103.838C487.621 103.647 487.247 103.552 486.939 103.552C486.411 103.552 485.956 104.073 485.575 105.114C485.208 106.141 485.025 107.277 485.025 108.524C485.025 109.771 485.296 110.394 485.839 110.394ZM492.977 110.35C492.977 109.719 493.168 108.649 493.549 107.138C493.93 105.613 494.121 104.681 494.121 104.344C494.121 103.992 493.857 103.53 493.329 102.958L493.351 102.672C494.348 102.467 495.661 102.364 497.289 102.364C497.362 102.555 497.399 102.899 497.399 103.398C497.399 103.897 497.194 104.96 496.783 106.588C496.372 108.216 496.167 109.228 496.167 109.624C496.167 110.02 496.314 110.218 496.607 110.218C497.032 110.218 497.524 110.064 498.081 109.756C498.14 109.404 498.286 108.729 498.521 107.732C499.049 105.385 499.313 103.706 499.313 102.694C499.826 102.489 500.75 102.386 502.085 102.386H502.503C502.503 103.075 502.298 104.425 501.887 106.434C501.476 108.429 501.271 109.602 501.271 109.954C501.271 110.291 501.344 110.46 501.491 110.46C501.579 110.46 501.997 110.284 502.745 109.932L503.163 110.636C501.858 111.721 500.714 112.264 499.731 112.264C499.262 112.264 498.858 112.132 498.521 111.868C498.198 111.604 498.015 111.259 497.971 110.834C496.783 111.802 495.705 112.286 494.737 112.286C494.224 112.286 493.798 112.117 493.461 111.78C493.138 111.443 492.977 110.966 492.977 110.35ZM502.239 98.448C502.239 98.8587 501.975 99.1887 501.447 99.438C500.728 99.7753 498.932 100.274 496.057 100.934L495.661 100.054C497.04 99.3353 498.286 98.602 499.401 97.854C500.516 97.106 501.205 96.6513 501.469 96.49C501.616 96.6953 501.777 97.018 501.953 97.458C502.144 97.898 502.239 98.228 502.239 98.448ZM514.648 110.658C513.401 111.729 512.301 112.264 511.348 112.264C510.409 112.264 509.866 111.795 509.72 110.856C509.28 111.296 508.788 111.641 508.246 111.89C507.703 112.139 507.226 112.264 506.816 112.264C506.112 112.264 505.51 111.956 505.012 111.34C504.513 110.724 504.264 109.771 504.264 108.48C504.264 106.544 504.674 105.026 505.496 103.926C506.317 102.811 507.241 102.254 508.268 102.254C509.309 102.254 510.182 102.489 510.886 102.958C511.34 100.582 511.568 98.712 511.568 97.348L511.458 96.424C512.558 96.0427 513.636 95.852 514.692 95.852C514.809 96.1013 514.868 96.3873 514.868 96.71C514.868 97.7807 514.545 99.9587 513.9 103.244C513.254 106.515 512.932 108.737 512.932 109.91C512.932 110.262 513.012 110.438 513.174 110.438C513.262 110.438 513.54 110.299 514.01 110.02L514.23 109.888L514.648 110.658ZM509.346 103.552C508.832 103.552 508.385 104.058 508.004 105.07C507.637 106.082 507.454 107.087 507.454 108.084C507.454 109.067 507.52 109.697 507.652 109.976C507.798 110.255 508.011 110.394 508.29 110.394C508.774 110.394 509.25 110.196 509.72 109.8C509.764 109.213 510.094 107.263 510.71 103.948C510.211 103.684 509.756 103.552 509.346 103.552ZM515.615 108.194C515.615 106.361 516.165 104.916 517.265 103.86C518.379 102.789 519.641 102.254 521.049 102.254C521.914 102.254 522.625 102.467 523.183 102.892C523.74 103.317 524.019 103.889 524.019 104.608C524.019 105.312 523.835 105.906 523.469 106.39C523.117 106.874 522.684 107.248 522.171 107.512C521.129 108.025 520.176 108.348 519.311 108.48L518.783 108.546C518.885 109.925 519.45 110.614 520.477 110.614C520.829 110.614 521.203 110.526 521.599 110.35C521.995 110.174 522.303 109.998 522.523 109.822L522.853 109.558L523.381 110.262C523.263 110.423 523.029 110.636 522.677 110.9C522.325 111.164 521.995 111.384 521.687 111.56C520.836 112.029 519.905 112.264 518.893 112.264C517.881 112.264 517.081 111.905 516.495 111.186C515.908 110.467 515.615 109.47 515.615 108.194ZM518.761 107.468C519.509 107.336 520.103 107.021 520.543 106.522C520.983 106.023 521.203 105.378 521.203 104.586C521.203 103.794 520.968 103.398 520.499 103.398C519.941 103.398 519.509 103.875 519.201 104.828C518.907 105.767 518.761 106.647 518.761 107.468Z" fill="#2C734A"/>
</svg>
